M48
M72,TZ
T10C0.039300
T11C0.059055
T12C0.031555
T13C0.031496
T14C0.035000
T15C0.043307
T16C0.062992
T17C0.030000
T18C0.038000
T19C0.042000
T20C0.127953
T21C0.141732
T22C0.015748
T23C0.039370
%
T10
X5.252380Y6.395656
X5.302380Y6.495656
X5.352380Y6.395656
X5.402380Y6.495656
X5.452380Y6.395656
X5.502380Y6.495656
X5.552380Y6.395656
X5.602380Y6.495656
X6.902380Y3.745660
X7.002380Y3.695660
X6.902380Y3.645660
X7.002380Y3.595660
X6.902380Y3.545660
X7.002380Y3.495660
X6.902380Y3.445660
X7.002380Y3.395660
X6.902380Y2.995660
X7.002380Y2.945660
X6.902380Y2.895660
X7.002380Y2.845660
X6.902380Y2.795660
X7.002380Y2.745660
X6.902380Y2.695660
X7.002380Y2.645660
X6.902380Y4.495660
X7.002380Y4.445660
X6.902380Y4.395660
X7.002380Y4.345660
X6.902380Y4.295660
X7.002380Y4.245660
X6.902380Y4.195660
X7.002380Y4.145660
X6.902380Y5.245660
X7.002380Y5.195660
X6.902380Y5.145660
X7.002380Y5.095660
X6.902380Y5.045660
X7.002380Y4.995660
X6.902380Y4.945660
X7.002380Y4.895660
X6.902380Y5.995660
X7.002380Y5.945660
X6.902380Y5.895660
X7.002380Y5.845660
X6.902380Y5.795660
X7.002380Y5.745660
X6.902380Y5.695660
X7.002380Y5.645660
X6.902380Y6.745656
X7.002380Y6.695656
X6.902380Y6.645656
X7.002380Y6.595656
X6.902380Y6.545656
X7.002380Y6.495656
X6.902380Y6.445656
X7.002380Y6.395656
X4.502380Y6.395656
X4.552380Y6.495656
X4.602380Y6.395656
X4.652380Y6.495656
X4.702380Y6.395656
X4.752380Y6.495656
X4.802380Y6.395656
X4.852380Y6.495656
X6.002380Y6.395656
X6.052380Y6.495656
X6.102380Y6.395656
X6.152380Y6.495656
X6.202380Y6.395656
X6.252380Y6.495656
X6.302380Y6.395656
X6.352380Y6.495656
X2.252380Y6.395656
X2.302380Y6.495656
X2.352380Y6.395656
X2.402380Y6.495656
X2.452380Y6.395656
X2.502380Y6.495656
X2.552380Y6.395656
X2.602380Y6.495656
X1.502380Y6.395656
X1.552380Y6.495656
X1.602380Y6.395656
X1.652380Y6.495656
X1.702380Y6.395656
X1.752380Y6.495656
X1.802380Y6.395656
X1.852380Y6.495656
X0.577383Y0.220660
X0.477383Y0.270660
X0.577383Y0.320660
X0.477383Y0.370660
X0.577383Y0.420660
X0.477383Y0.470660
X0.577383Y0.520660
X0.477383Y0.570660
X0.577383Y0.970660
X0.477383Y1.020660
X0.577383Y1.070660
X0.477383Y1.120660
X0.577383Y1.170660
X0.477383Y1.220660
X0.577383Y1.270660
X0.477383Y1.320660
X3.002380Y6.395656
X3.052380Y6.495656
X3.102380Y6.395656
X3.152380Y6.495656
X3.202380Y6.395656
X3.252380Y6.495656
X3.302380Y6.395656
X3.352380Y6.495656
X3.752380Y6.395656
X3.802380Y6.495656
X3.852380Y6.395656
X3.902380Y6.495656
X3.952380Y6.395656
X4.002380Y6.495656
X4.052380Y6.395656
X4.102380Y6.495656
T11
X1.252380Y6.045656
X1.452380Y6.045656
X1.652380Y6.045656
X1.852380Y6.045656
X2.052380Y6.045656
X2.252380Y6.045656
X2.452380Y6.045656
X2.652380Y6.045656
X2.852380Y6.045656
X3.052380Y6.045656
X3.252380Y6.045656
X3.452380Y6.045656
X0.402385Y4.295660
X0.402385Y4.095660
X0.402385Y3.895660
X0.402385Y3.695660
X0.402385Y3.495660
X0.402385Y3.295660
X0.402383Y2.795660
X0.402383Y2.595660
X0.402383Y2.395660
X0.402383Y2.195660
X0.402383Y1.995660
X0.402383Y1.795660
X0.402385Y6.695660
X0.402385Y6.495660
X0.402385Y6.295660
X0.402385Y6.095660
X0.402385Y5.895660
X0.402385Y5.695660
X0.402385Y5.495660
X0.402385Y5.295660
X0.402385Y5.095660
X0.402385Y4.895660
X0.402385Y4.695660
X0.402385Y4.495660
T12
X6.277360Y4.838740
T13
X6.277390Y4.645650
T14
X5.527380Y2.895660
X5.527380Y2.995660
X4.702380Y1.795660
X4.702380Y2.195660
X4.702380Y2.745660
X4.702380Y3.145660
X4.702380Y3.445660
X4.702380Y3.845660
X5.552380Y2.545660
X5.152380Y2.545660
X6.652380Y1.520660
X7.052380Y1.520660
X7.052380Y1.720660
X6.652380Y1.720660
X6.102380Y2.545660
X5.702380Y2.545660
X0.977380Y1.245660
X0.977380Y1.645660
X1.077380Y3.045660
X0.677383Y3.045660
X6.502380Y5.245660
X6.502380Y4.845660
X6.602380Y6.495656
X6.602380Y6.095656
X6.577380Y5.945660
X6.577380Y5.545660
X5.552380Y6.045656
X5.952380Y6.045656
X4.502380Y5.895660
X4.902380Y5.895660
X3.802380Y5.895660
X4.202380Y5.895660
X6.552380Y4.495660
X6.552380Y4.095660
X6.502380Y3.595660
X6.502380Y3.195660
X6.502380Y3.045660
X6.502380Y2.645660
X4.552380Y5.245660
X4.852380Y5.245660
X4.552380Y5.145660
X4.852380Y5.145660
X4.552380Y5.045660
X4.852380Y5.045660
X4.552380Y4.945660
X4.852380Y4.945660
X4.552380Y4.845660
X4.852380Y4.845660
X4.552380Y4.745660
X4.852380Y4.745660
X4.552380Y4.645660
X4.852380Y4.645660
X3.875530Y5.247510
X4.175530Y5.247510
X3.875530Y5.147510
X4.175530Y5.147510
X3.875530Y5.047510
X4.175530Y5.047510
X3.875530Y4.947510
X4.175530Y4.947510
X3.875530Y4.847510
X4.175530Y4.847510
X3.875530Y4.747510
X4.175530Y4.747510
X3.875530Y4.647510
X4.175530Y4.647510
X5.552380Y5.245660
X5.852380Y5.245660
X5.552380Y5.145660
X5.852380Y5.145660
X5.552380Y5.045660
X5.852380Y5.045660
X5.552380Y4.945660
X5.852380Y4.945660
X5.552380Y4.845660
X5.852380Y4.845660
X5.552380Y4.745660
X5.852380Y4.745660
X5.552380Y4.645660
X5.852380Y4.645660
X5.552380Y4.545660
X5.852380Y4.545660
X5.552380Y4.445660
X5.852380Y4.445660
X5.552380Y4.345660
X5.852380Y4.345660
X5.552380Y4.245660
X5.852380Y4.245660
X5.552380Y4.145660
X5.852380Y4.145660
X5.552380Y4.045660
X5.852380Y4.045660
X5.552380Y3.945660
X5.852380Y3.945660
X1.202380Y1.195660
X1.202380Y1.495660
X1.302380Y1.195660
X1.302380Y1.495660
X1.177380Y2.745660
X1.177380Y3.045660
X1.277380Y2.745660
X1.277380Y3.045660
T15
X1.877390Y2.020650
X2.027390Y2.320650
X2.051720Y3.070830
X2.051720Y3.370610
X1.227380Y4.220660
X1.227380Y4.420660
X1.227380Y5.320660
X1.227380Y4.920660
T16
X2.202380Y2.745660
X2.402380Y2.745660
X2.602380Y2.745660
X2.802380Y2.745660
X3.002380Y2.745660
X3.202380Y2.745660
X3.402380Y2.745660
X3.602380Y2.745660
X3.802380Y2.745660
X4.002380Y2.745660
X4.202380Y2.745660
X4.402380Y2.745660
X2.202380Y1.645660
X2.402380Y1.645660
X2.602380Y1.645660
X2.802380Y1.645660
X3.002380Y1.645660
X3.202380Y1.645660
X3.402380Y1.645660
X3.602380Y1.645660
X3.802380Y1.645660
X4.002380Y1.645660
X4.202380Y1.645660
X4.402380Y1.645660
X2.202380Y3.845660
X2.402380Y3.845660
X2.602380Y3.845660
X2.802380Y3.845660
X3.002380Y3.845660
X3.202380Y3.845660
X3.402380Y3.845660
X3.602380Y3.845660
X3.802380Y3.845660
X4.002380Y3.845660
X4.202380Y3.845660
X4.402380Y3.845660
X7.377380Y2.520660
X7.377380Y3.270660
X7.377380Y4.020660
X7.377380Y4.770660
X7.377380Y5.520660
X7.377380Y6.270656
X5.877380Y6.870656
X5.127380Y6.870656
X4.377380Y6.870656
X3.627380Y6.870656
X2.877380Y6.870656
X2.127380Y6.870656
X1.377380Y6.870656
X0.102383Y0.095660
X7.377380Y3.120660
X7.377380Y3.870660
X7.377380Y4.620660
X7.377380Y5.370660
X7.377380Y6.120656
X7.377380Y6.870656
X6.477380Y6.870656
X5.727380Y6.870656
X4.977380Y6.870656
X4.227380Y6.870656
X3.477380Y6.870656
X2.727380Y6.870656
X1.977380Y6.870656
X0.102383Y0.695660
X0.102383Y1.445660
X0.102383Y0.845660
T17
X0.427568Y3.095660
X0.327383Y3.095660
X0.427568Y2.995660
X0.327383Y2.995660
X2.527570Y1.020660
X2.427380Y1.020660
X6.052380Y4.545480
X6.052380Y4.645660
X4.802570Y5.420660
X4.702380Y5.420660
X4.177570Y5.420660
X4.077380Y5.420660
X5.377380Y4.720480
X5.377380Y4.820660
X6.177200Y5.095660
X6.277380Y5.095660
X6.177200Y4.395660
X6.277380Y4.395660
T18
X5.227380Y1.070660
X5.127380Y1.070660
X5.027380Y1.070660
X4.927380Y1.070660
X0.777383Y0.520660
X0.777383Y0.620660
X0.777383Y0.120660
X0.777383Y0.220660
X3.002380Y0.820660
X2.902380Y0.820660
X2.802380Y0.820660
X2.702380Y0.820660
X2.602380Y0.820660
X2.502380Y0.820660
X6.027380Y1.170660
X6.127380Y1.170660
X6.227380Y1.170660
X6.327380Y1.170660
X6.427380Y1.170660
X6.527380Y1.170660
X6.627380Y1.170660
X6.727380Y1.170660
X6.827380Y1.170660
X6.927380Y1.170660
X7.027380Y1.170660
X7.127380Y1.170660
X7.227380Y1.170660
X7.227380Y1.070660
X7.127380Y1.070660
X7.027380Y1.070660
X6.927380Y1.070660
X6.827380Y1.070660
X6.727380Y1.070660
X6.627380Y1.070660
X6.527380Y1.070660
X6.427380Y1.070660
X6.327380Y1.070660
X6.227380Y1.070660
X6.127380Y1.070660
X6.027380Y1.070660
X3.877380Y1.370660
X3.777380Y1.370660
X3.677380Y1.370660
X3.577380Y1.370660
X3.877380Y2.345660
X3.777380Y2.345660
X3.677380Y2.345660
X3.577380Y2.345660
X3.877380Y3.395660
X3.777380Y3.395660
X3.677380Y3.395660
X3.577380Y3.395660
X3.352380Y1.370660
X3.252380Y1.370660
X3.152380Y1.370660
X3.052380Y1.370660
X2.952380Y1.370660
X2.852380Y1.370660
X3.352380Y2.345660
X3.252380Y2.345660
X3.152380Y2.345660
X3.052380Y2.345660
X2.952380Y2.345660
X2.852380Y2.345660
X3.352380Y3.395660
X3.252380Y3.395660
X3.152380Y3.395660
X3.052380Y3.395660
X2.952380Y3.395660
X2.852380Y3.395660
X7.402380Y0.095660
X7.302380Y0.095660
X7.202380Y0.095660
X7.102380Y0.095660
X7.002380Y0.095660
X6.902380Y0.095660
X6.802380Y0.095660
X6.702380Y0.095660
X6.602380Y0.095660
X6.502380Y0.095660
X6.402380Y0.095660
X6.302380Y0.095660
X6.202380Y0.095660
X6.102380Y0.095660
X6.002380Y0.095660
X5.902380Y0.095660
X5.802380Y0.095660
X5.702380Y0.095660
X5.602380Y0.095660
X5.502380Y0.095660
X5.402380Y0.095660
X5.302380Y0.095660
X5.302380Y0.195660
X5.402380Y0.195660
X5.502380Y0.195660
X5.602380Y0.195660
X5.702380Y0.195660
X5.802380Y0.195660
X5.902380Y0.195660
X6.002380Y0.195660
X6.102380Y0.195660
X6.202380Y0.195660
X6.302380Y0.195660
X6.402380Y0.195660
X6.502380Y0.195660
X6.602380Y0.195660
X6.702380Y0.195660
X6.802380Y0.195660
X6.902380Y0.195660
X7.002380Y0.195660
X7.102380Y0.195660
X7.202380Y0.195660
X7.302380Y0.195660
X7.402380Y0.195660
X7.402380Y1.995660
X7.302380Y1.995660
X7.202380Y1.995660
X7.102380Y1.995660
X7.002380Y1.995660
X6.902380Y1.995660
X6.802380Y1.995660
X6.702380Y1.995660
X6.602380Y1.995660
X6.502380Y1.995660
X6.402380Y1.995660
X6.302380Y1.995660
X6.202380Y1.995660
X6.102380Y1.995660
X6.002380Y1.995660
X5.902380Y1.995660
X5.802380Y1.995660
X5.702380Y1.995660
X5.602380Y1.995660
X5.502380Y1.995660
X5.402380Y1.995660
X5.302380Y1.995660
X5.302380Y2.095660
X5.402380Y2.095660
X5.502380Y2.095660
X5.602380Y2.095660
X5.702380Y2.095660
X5.802380Y2.095660
X5.902380Y2.095660
X6.002380Y2.095660
X6.102380Y2.095660
X6.202380Y2.095660
X6.302380Y2.095660
X6.402380Y2.095660
X6.502380Y2.095660
X6.602380Y2.095660
X6.702380Y2.095660
X6.802380Y2.095660
X6.902380Y2.095660
X7.002380Y2.095660
X7.102380Y2.095660
X7.202380Y2.095660
X7.302380Y2.095660
X7.402380Y2.095660
X5.552380Y5.595660
X5.552380Y5.695660
X5.552380Y5.795660
X5.652380Y5.795660
X5.652380Y5.695660
X5.652380Y5.595660
X6.252380Y3.945660
X6.152380Y3.945660
X6.252380Y5.295660
X6.152380Y5.295660
X5.152380Y2.795660
X5.152380Y2.695660
T19
X2.027380Y0.520660
X2.027380Y0.820660
X1.252380Y1.722660
X1.252380Y2.020660
X1.252380Y2.197660
X1.252380Y2.495660
T20
X7.252380Y6.795657
X7.252380Y6.345657
X7.252380Y6.045657
X7.252380Y5.595660
X7.252380Y5.295660
X7.252380Y4.845660
X7.252380Y4.545660
X7.252380Y4.095660
X7.252380Y3.795660
X7.252380Y3.345660
X7.252380Y3.045660
X7.252380Y2.595660
X5.952380Y6.745657
X6.402380Y6.745657
X5.652380Y6.745657
X5.202380Y6.745657
X4.902380Y6.745657
X4.452380Y6.745657
X4.152380Y6.745657
X3.702380Y6.745657
X3.402380Y6.745657
X2.952380Y6.745657
X2.652380Y6.745657
X2.202380Y6.745657
X1.902380Y6.745657
X0.227383Y0.620660
X0.227383Y0.920660
X0.227383Y1.370660
X1.452380Y6.745657
X0.227383Y0.170660
T21
X1.144120Y0.853130
X1.380340Y0.853130
X4.529940Y0.853130
X4.529940Y1.089350
X6.183480Y6.049990
X6.419710Y6.049990
X1.144120Y6.640534
X1.144120Y6.404312
X6.183480Y3.097230
X6.183480Y3.333450
X1.144110Y3.766520
X1.380340Y3.766520
T22
X5.752500Y4.720470
X6.402380Y0.720660
X7.177380Y0.395660
X6.328320Y3.543800
X5.327380Y3.545660
X4.852380Y4.070660
X6.102380Y5.795660
T23
X6.227380Y0.595660
X6.027380Y0.470660
T00
M30
