<?xml version="1.0" encoding="UTF-8" standalone="no"?>
<!-- Created with Inkscape (http://www.inkscape.org/) -->

<svg
   xmlns:dc="http://purl.org/dc/elements/1.1/"
   xmlns:cc="http://creativecommons.org/ns#"
   xmlns:rdf="http://www.w3.org/1999/02/22-rdf-syntax-ns#"
   xmlns:svg="http://www.w3.org/2000/svg"
   xmlns="http://www.w3.org/2000/svg"
   xmlns:sodipodi="http://sodipodi.sourceforge.net/DTD/sodipodi-0.dtd"
   xmlns:inkscape="http://www.inkscape.org/namespaces/inkscape"
   id="svg4695"
   height="29.108mm"
   viewBox="0 0 177.47685 103.14"
   width="50.088112mm"
   version="1.1"
   inkscape:version="0.92.0 unknown"
   sodipodi:docname="fabisp.svg">
  <defs
     id="defs4141" />
  <sodipodi:namedview
     pagecolor="#ffffff"
     bordercolor="#666666"
     borderopacity="1"
     objecttolerance="10"
     gridtolerance="10"
     guidetolerance="10"
     inkscape:pageopacity="0"
     inkscape:pageshadow="2"
     inkscape:window-width="1301"
     inkscape:window-height="744"
     id="namedview4139"
     showgrid="false"
     inkscape:zoom="1.4562007"
     inkscape:cx="101.71211"
     inkscape:cy="-14.544597"
     inkscape:window-x="65"
     inkscape:window-y="24"
     inkscape:window-maximized="1"
     inkscape:current-layer="svg4695"
     fit-margin-top="0"
     fit-margin-left="0"
     fit-margin-right="0"
     fit-margin-bottom="0" />
  <metadata
     id="metadata4701">
    <rdf:RDF>
      <cc:Work
         rdf:about="">
        <dc:format>image/svg+xml</dc:format>
        <dc:type
           rdf:resource="http://purl.org/dc/dcmitype/StillImage" />
        <dc:title></dc:title>
      </cc:Work>
    </rdf:RDF>
  </metadata>
  <path
     id="path5245"
     d="m 177.47842,51.57 v 51.57 H 88.738425 -0.00157541 V 51.57 0 H 88.738425 177.47842 Z M 40.778425,11.443 c -0.40942,0.40941 -0.42305,7.1167 -0.0152,7.4552 0.50788,0.4215 0.79067,0.0801 0.84804,-1.0239 l 0.0543,-1.0442 1.6193,-0.0526 c 1.5411,-0.0501 1.6476,-0.0801 2.205,-0.62031 0.57239,-0.55478 0.58567,-0.60312 0.58567,-2.1314 v -1.5638 l -0.72052,-0.65094 -0.72052,-0.65095 h -1.7866 c -1.3842,0 -1.8503,0.0637 -2.0695,0.28286 z m 3.7671,1.2307 c 0.36112,0.36113 0.45004,0.62948 0.45004,1.3582 0,1.3654 -0.37421,1.6583 -2.0327,1.5909 l -1.2973,-0.0527 v -1.62 -1.62 l 1.215,-0.0532 c 1.0932,-0.0479 1.26,-0.008 1.665,0.39682 z m -10.464,-0.72727 c -1.0406,1.0406 -1.066,1.6984 -0.11132,2.8782 0.6734,0.83215 0.67769,0.83413 1.8082,0.83483 0.96261,5.4e-4 1.1997,0.0672 1.575,0.44251 0.92463,0.92462 0.31123,1.8982 -1.196,1.8982 -0.79285,0 -0.98824,-0.0754 -1.4354,-0.55409 -1.035,-1.108 -1.6552,-0.27315 -0.67447,0.9079 l 0.59763,0.7197 h 1.53 1.53 l 0.585,-0.70465 c 0.48634,-0.58581 0.585,-0.85494 0.585,-1.5958 0,-0.81138 -0.0645,-0.94943 -0.72052,-1.5421 -0.66038,-0.59661 -0.8113,-0.65094 -1.8082,-0.65094 -0.9148,0 -1.1579,-0.0702 -1.5295,-0.44182 -0.56604,-0.56603 -0.55585,-0.73185 0.0843,-1.372 0.74488,-0.74487 1.7444,-0.73415 2.6125,0.028 0.69599,0.61109 1.2422,0.63493 1.3251,0.0578 0.0359,-0.25021 -0.18805,-0.59276 -0.67552,-1.0332 -0.69583,-0.62864 -0.78807,-0.65884 -2.0124,-0.65884 -1.2751,0 -1.2881,0.005 -2.0695,0.78632 z m -5.0016,-0.67706 c -0.44524,0.17086 -0.34189,0.77791 0.16528,0.97074 l 0.45,0.17109 v 2.7083 2.7083 l -0.45824,0.20879 c -0.31262,0.14243 -0.44132,0.32711 -0.405,0.58114 0.0487,0.34094 0.1745,0.37235 1.4908,0.37235 1.2073,0 1.4469,-0.0488 1.4962,-0.30459 0.037,-0.19227 -0.14632,-0.41058 -0.49719,-0.59203 l -0.55584,-0.28743 0.0497,-2.738 c 0.0491,-2.7071 0.0543,-2.7386 0.46566,-2.7969 0.5551,-0.0787 0.72054,-0.55871 0.29883,-0.86707 -0.33784,-0.24704 -1.9772,-0.33537 -2.5001,-0.13471 z m -18.902,0.1736 c -0.4094204,0.40941 -0.4230504,7.1167 -0.0152,7.4552 0.5824,0.48335 0.79566,0.0909 0.85016,-1.5647 l 0.0522,-1.5834 0.95438,-0.0547 c 0.64813,-0.0372 0.98793,-0.14213 1.0589,-0.3271 0.15998,-0.4169 -0.219,-0.67192 -1.1591,-0.77998 l -0.85418,-0.0982 v -1.08 -1.08 l 2.1229,-0.0508 c 1.7559,-0.042 2.1421,-0.10095 2.2342,-0.34103 0.22643,-0.59007 -0.44046,-0.77819 -2.7587,-0.77819 -1.7625,0 -2.2593,0.0565 -2.4856,0.28286 z m 11.45,0.112 c -0.15292,0.15292 -0.216,1.22 -0.216,3.654 0,2.434 0.0631,3.5011 0.216,3.654 0.14237,0.14237 0.89401,0.21489 2.205,0.21275 l 1.989,-0.003 0.585,-0.70465 c 0.55212,-0.66504 0.58458,-0.78374 0.57751,-2.1118 -0.007,-1.3484 -0.0339,-1.437 -0.63954,-2.1231 -0.62784,-0.71126 -0.64246,-0.71665 -2.1975,-0.81 l -1.5655,-0.094 -0.0513,-0.72 c -0.0282,-0.396 -0.0864,-0.82125 -0.12935,-0.945 -0.099,-0.28529 -0.49248,-0.28987 -0.77335,-0.009 z m 3.834,3.2776 c 0.37185,0.37185 0.45004,0.62348 0.45004,1.4482 0,1.4652 -0.34383,1.7496 -2.0327,1.6809 l -1.2973,-0.0527 v -1.71 -1.71 l 1.215,-0.0532 c 1.0932,-0.0479 1.26,-0.008 1.665,0.39682 z m 24.756,2.1764 -4.9884,4.95 h -6.7097 -6.7097 l -2.6793,2.6423 -2.6793,2.6423 v 9.7153 9.7153 l -1.98,2.0068 -1.98,2.0068 v 9.8932 9.8932 l 2.2058,2.2005 2.2058,2.2005 8.2792,0.0469 8.2792,0.0468 0.09,0.63 0.09,0.63 3.1696,0.049 c 2.6602,0.0412 3.2062,0.005 3.397,-0.225 0.18621,-0.22438 0.74628,-0.27405 3.0899,-0.27405 h 2.8624 l 0.17283,0.45458 0.17284,0.45458 2.8377,-0.0496 2.8377,-0.0496 v -1.44 -1.44 l -2.8377,-0.0496 -2.8377,-0.0496 -0.17454,0.45906 -0.17453,0.45906 -2.9278,-0.0495 -2.9278,-0.0495 -0.09,-1.98 -0.09,-1.98 h -3.24 -3.24 l -0.09,1.53 -0.09,1.53 -8.19,-0.0526 -8.19,-0.0526 -1.665,-1.6755 -1.665,-1.6755 v -9.5046 -9.5046 l 1.98,-2.0068 1.98,-2.0068 v -9.6294 -9.6294 l 2.3105,-2.2861 2.3105,-2.2861 h 15.728 15.728 l 5.9912,5.9814 c 3.28,3.292 5.98,6.068 5.98,6.17 0,0.10253 -0.97291,1.1571 -2.162,2.3436 l -2.162,2.1572 -1.663,0.09 -1.663,0.09 v 1.44 c 0,1.3563 0.0235,1.4433 0.405,1.4975 0.22275,0.03164 0.405,0.1544 0.405,0.27281 0,0.11841 -0.97295,1.186 -2.1621,2.3725 l -2.1621,2.1572 -2.5629,0.09 -2.5629,0.09 v 2.88 2.88 h 3.24 3.24 l 0.09,-2.9248 0.09,-2.9248 2.3851,-2.3852 2.3851,-2.3852 1.4849,-0.09 1.4849,-0.09 0.0526,-1.3977 c 0.0424,-1.1268 -10e-4,-1.4184 -0.225,-1.5043 -0.15269,-0.05859 -0.27749,-0.19912 -0.27732,-0.31228 3.8e-4,-0.25286 13.758,-13.796 14.014,-13.796 0.10108,0 0.20892,0.30375 0.23965,0.675 l 0.0559,0.675 h 1.08 1.08 v -3.96 -3.96 h -1.08 -1.08 l -0.09,2.2046 -0.09,2.2046 -5.3088,5.3104 c -2.9199,2.9207 -5.3908,5.3104 -5.491,5.3104 -0.10017,0 -2.9758,-2.7945 -6.3902,-6.21 l -6.208,-6.21 h -8.3154 c -4.5734,0 -8.3567,-0.0669 -8.4073,-0.14874 -0.0506,-0.0818 1.7914,-2.0258 4.0932,-4.32 l 4.1851,-4.1713 h 42.24 42.239995 l 0.63787,0.56006 c 0.35082,0.30803 0.68448,0.74581 0.74147,0.97286 0.057,0.22704 1.7889,2.081 3.8488,4.1199 l 3.7452,3.7071 h 5.4334 5.4334 l 0.52615,0.52615 0.52615,0.52615 v 2.6537 2.6537 l -2.0635,2.0852 -2.0635,2.0852 -3.2915,0.09 -3.2915,0.09 v 2.16 2.16 l 1.89,0.09 1.89,0.09 0.046,15.269 c 0.0253,8.398 -0.0212,15.389 -0.10334,15.536 -0.0822,0.1468 -4.3536,4.4739 -9.492,9.6158 l -9.3426,9.3489 h -3.316 -3.316 l -1.7281,-1.7023 -1.7281,-1.7023 -0.09,-2.3027 -0.09,-2.3027 h -2.88 -2.88 l -0.09,1.26 -0.09,1.26 h -3.24 -3.24 l -0.09,-1.26 -0.09,-1.26 h -2.88 -2.88 v 3.24 3.24 h 2.88 2.88 l 0.09,-1.26 0.09,-1.26 h 3.24 3.24 l 0.09,1.26 0.09,1.26 3.1262,0.0253 3.1262,0.0253 1.3778,1.3697 1.3778,1.3697 h 3.7882 3.7882 l 9.8418,-9.8792 9.8418,-9.8792 0.046,-15.636 0.046,-15.636 1.89,-0.09 1.89,-0.09 0.0507,-2.1184 c 0.0424,-1.7684 0.005,-2.1359 -0.225,-2.2243 -0.15165,-0.0582 -0.27574,-0.2 -0.27574,-0.31511 0,-0.11511 0.7695,-0.9756 1.71,-1.9122 l 1.71,-1.7029 v -3.0579 -3.0579 l -0.93885,-0.95066 -0.93885,-0.95066 h -5.3954 -5.3954 l -3.3858,-3.3688 c -1.8622,-1.8528 -3.3858,-3.4504 -3.3858,-3.5502 0,-0.0998 -0.50391,-0.68981 -1.1198,-1.3112 l -1.1198,-1.1298 h -42.732995 -42.733 l -4.9884,4.95 z m -34.359,-3.5307 c -0.13349,0.0846 -0.21372,0.30611 -0.1783,0.49225 0.0534,0.28076 0.27391,0.35377 1.2938,0.42843 1.0112,0.074 1.2902,0.1652 1.5723,0.51375 0.18863,0.23306 0.29812,0.49631 0.24331,0.585 -0.0548,0.0887 -0.70214,0.16125 -1.4385,0.16125 -1.2855,0 -1.3676,0.0259 -2.0594,0.65094 -0.87817,0.79338 -0.8983,1.2009 -0.10369,2.1002 l 0.60185,0.68109 2.0457,-0.0511 2.0457,-0.0511 0.051,-2.0394 0.051,-2.0394 -0.57561,-0.66063 c -0.31658,-0.36335 -0.70404,-0.71569 -0.86103,-0.78298 -0.41424,-0.17757 -2.4031,-0.16893 -2.6881,0.0117 z m 2.9636,3.5202 c 0.25501,0.66453 0.001,0.90907 -1.0029,0.96614 -1.2999,0.0739 -1.8079,-0.0674 -1.8079,-0.50273 0,-0.49499 0.53717,-0.7229 1.7038,-0.7229 0.71134,0 1.0368,0.0763 1.107,0.25949 z m 37.419,0.55051 v 2.88 h 3.24 3.24 l 0.09,-1.26 0.09,-1.26 13.906,-0.0461 13.906,-0.0461 0.67356,0.6169 0.67357,0.6169 0.09,4.1092 0.09,4.1092 h 1.08 1.08 l 0.0412,-3.87 0.0412,-3.87 -1.5854,-1.44 -1.5854,-1.44 -14.206,-0.09 -14.206,-0.09 -0.0513,-0.72 c -0.0888,-1.2462 0.10166,-1.1831 -3.4096,-1.1292 l -3.199,0.0492 v 2.88 z m 94.139995,0 v 2.16 h 4.5 4.5 l 0.0564,-0.585 c 0.031,-0.32175 0.15347,-0.585 0.27211,-0.585 0.11864,0 1.4907,1.2769 3.0491,2.8376 l 2.8334,2.8375 -0.0455,31.407 -0.0455,31.407 -0.63,0.09 -0.63,0.09 v 2.88 2.88 h 1.98 1.98 v -2.88 -2.88 l -0.63,-0.09 -0.63,-0.09 -0.0455,-31.691 -0.0455,-31.691 -3.207,-3.1758 c -1.7639,-1.7467 -3.4242,-3.2584 -3.6895,-3.3593 -0.4082,-0.1552 -0.48245,-0.2903 -0.48245,-0.87788 0,-0.38196 -0.0554,-0.74984 -0.12307,-0.81753 -0.0677,-0.0677 -2.1129,-0.10144 -4.545,-0.075 l -4.4219,0.0481 v 2.16 z m -19.492,-0.18039 c -0.0347,1.3326 0.0222,2.1173 0.17391,2.4009 0.20985,0.39211 0.1491,0.49505 -0.87807,1.4878 l -1.1035,1.0666 -6.0004,-0.0474 -6.0004,-0.0474 -0.09,-1.44 -0.09,-1.44 h -1.08 -1.08 v 3.96 3.96 h 1.08 1.08 l 0.09,-1.8 0.09,-1.8 6.2094,-0.04742 6.2094,-0.04741 1.8484,-1.8426 1.8483,-1.8426 3.3723,-0.09 3.3723,-0.09 0.0514,-1.9684 c 0.0283,-1.0826 0.01,-2.0763 -0.0406,-2.2082 -0.0739,-0.19252 -0.96996,-0.23024 -4.5514,-0.19156 l -4.4594,0.0482 -0.0515,1.9796 z m -20.697,5.8705 c -0.0411,3.3008 -0.007,3.9245 0.225,4.117 0.181,0.15 0.274,0.545 0.274,1.159 0,0.51258 0.0972,1.0292 0.216,1.148 0.16316,0.16316 2.8358,0.216 10.925,0.216 h 10.709 l 0.51608,-0.495 c 0.51461,-0.49359 0.52511,-0.49526 3.6998,-0.585 l 3.1838,-0.09 v -2.16 -2.16 h -4.5 -4.5 l -0.09,2.07 -0.09,2.07 h -9.36 -9.36 l -0.0541,-0.46541 c -0.0301,-0.25899 0.0697,-0.56814 0.225,-0.69704 0.23609,-0.19593 0.2791,-0.82011 0.2791,-4.0496 0,-2.0999 -0.0575,-3.8755 -0.12785,-3.9458 -0.0703,-0.0703 -0.57657,-0.10407 -1.125,-0.075 l -0.99715,0.0528 -0.0484,3.8901 z m -4.5,0 c -0.0411,3.3008 -0.007,3.9245 0.225,4.117 0.184,0.152 0.274,0.55 0.274,1.21 v 0.9829 l 3.088,3.133 3.089,3.134 9.196,0.046 9.197,0.047 0.09,0.9 0.09,0.9 2.16,0.09 2.16,0.09 v 1.08 1.08 l -1.26,0.09 -1.26,0.09 v 2.88 2.88 h 3.24 3.24 v -2.88 -2.88 l -1.26,-0.09 -1.26,-0.09 v -1.08 -1.08 l 1.62,-0.09 1.62,-0.09 v -2.16 -2.16 h -4.4982 -4.4982 l -0.0935,0.54 -0.0935,0.54 -8.9142,0.04666 -8.9142,0.04666 -2.7391,-2.7598 c -2.628,-2.6479 -2.7391,-2.7893 -2.7391,-3.4896 0,-0.42918 0.11123,-0.82218 0.27,-0.95395 0.22447,-0.1863 0.27,-0.86789 0.27,-4.042 0,-2.0999 -0.0575,-3.8755 -0.12786,-3.9458 -0.0703,-0.0703 -0.57657,-0.10407 -1.125,-0.075 l -0.99715,0.0528 -0.0484,3.8901 z m -4.4516,0.0699 v 3.96 h 1.08 1.08 l 0.0488,-3.7753 c 0.0268,-2.0764 0.008,-3.8828 -0.0428,-4.0141 -0.065,-0.16928 -0.39322,-0.22298 -1.1288,-0.18465 l -1.0372,0.054 v 3.96 z m -4.499995,0 v 3.96 h 1.08 1.08 l 0.0488,-3.7753 c 0.0268,-2.0764 0.008,-3.8828 -0.0428,-4.0141 -0.065,-0.16928 -0.39322,-0.22298 -1.1288,-0.18465 l -1.0372,0.054 v 3.96 z m 53.588995,3.06 c -0.0342,1.3117 0.0229,2.1188 0.1692,2.3921 0.20549,0.38395 0.1126,0.52112 -1.3434,1.984 l -1.5642,1.5715 v 3.7718 3.7718 l -3.8296,3.8297 -3.8297,3.8297 h -3.854 -3.854 l -3.1644,-3.1467 -3.1644,-3.1467 -4.407,-0.0483 -4.407,-0.0483 -0.09,-1.71 -0.09,-1.71 h -1.08 -1.08 v 3.96 3.96 h 1.08 1.08 l 0.09,-1.53 0.09,-1.53 4.2152,-0.04839 4.2152,-0.04839 3.1711,3.1534 3.1711,3.1534 h 4.2223 4.2223 l 4.2764,-4.2736 4.2764,-4.2736 v -3.7649 -3.7649 l 1.883,-1.9065 1.883,-1.9065 3.382,-0.09 3.382,-0.09 0.0514,-1.9684 c 0.0283,-1.0826 0.01,-2.0763 -0.0406,-2.2082 -0.0739,-0.19253 -0.96996,-0.23024 -4.5514,-0.19157 l -4.4594,0.04816 -0.0515,1.9796 z m -94.177995,0.27039 -0.09,1.89 h -4.32 -4.32 l -0.09,-1.26 -0.09,-1.26 h -2.88 -2.88 l -0.09,2.4712 -0.09,2.4712 -1.305,1.313 -1.305,1.313 v 11.395 11.395 l -0.52615,0.52615 -0.52616,0.52615 h -4.4867 -4.4866 l -1.7372,1.7903 -1.7372,1.7903 v 1.8175 1.8175 l 0.83463,0.89229 0.83463,0.89229 2.4504,-0.022 c 1.3477,-0.0121 3.5844,-0.0728 4.9704,-0.135 l 2.52,-0.11304 v -0.54 -0.54 l -4.8042,-0.0479 -4.8042,-0.0479 -0.37077,-0.47136 c -0.29469,-0.37464 -0.37077,-0.73163 -0.37077,-1.7398 v -1.2685 l 1.4073,-1.4073 1.4073,-1.4073 h 4.4504 4.4504 l 0.89229,-0.83463 0.89229,-0.83463 v -11.498 -11.498 l 0.61562,-0.67236 0.61562,-0.67236 3.0294,-0.09 3.0294,-0.09 0.09,-1.26 0.09,-1.26 4.2669,-0.04824 c 4.0889,-0.04623 4.2749,-0.03343 4.457,0.30682 0.15516,0.28993 0.41255,0.36482 1.4031,0.40824 l 1.213,0.05318 v 4.59 4.59 l -1.35,0.09 -1.35,0.09 v 1.44 1.44 h 2.88 2.88 v -1.44 -1.44 l -0.81,-0.09 -0.81,-0.09 v -4.59 -4.59 l 1.26,-0.09 1.26,-0.09 0.05,-2.6921 c 0.0275,-1.4806 0.009,-2.7988 -0.041,-2.9292 -0.0715,-0.18641 -0.7747,-0.22657 -3.29,-0.18791 l -3.199,0.04917 -0.09,1.89 z m -24.75,2.61 v 3.24 l 1.08,0.09 1.08,0.09 v 2.25 2.25 l -1.08,0.09 -1.08,0.09 v 3.24 3.24 h 2.88 2.88 v -3.24 -3.24 l -1.08,-0.09 -1.08,-0.09 v -2.25 -2.25 l 1.08,-0.09 1.08,-0.09 0.0495,-3.0534 c 0.0272,-1.6794 0.009,-3.1597 -0.0411,-3.2896 -0.0706,-0.18409 -0.71693,-0.22526 -2.9295,-0.18661 l -2.8389,0.04959 v 3.24 z m 48.2,12.915 -7.2388,7.245 -0.0504,1.62 -0.0504,1.62 -1.26,0.09 -1.26,0.09 v 2.88 2.88 h 3.24 3.24 v -2.88 -2.88 l -1.26,-0.09 -1.26,-0.09 -0.0532,-1.4292 -0.0532,-1.4292 6.8058,-6.8058 6.8058,-6.8058 h 8.9385 8.938495 l 0.55381,0.466 c 0.60578,0.50973 0.70486,0.87752 0.28029,1.0404 -0.23521,0.09026 -0.26672,0.65395 -0.225,4.0243 l 0.0486,3.9193 h 1.08 1.08 l 0.09,-2.277 c 0.0753,-1.9061 0.14586,-2.3385 0.4329,-2.655 0.18859,-0.20792 0.47979,-0.37804 0.6471,-0.37804 0.16732,0 0.45851,0.17012 0.64711,0.37804 0.28704,0.31646 0.35755,0.74892 0.43289,2.655 l 0.09,2.277 h 1.08 1.08 v -3.96 -3.96 h -1.08 -1.08 l -0.0559,0.675 c -0.0311,0.37597 -0.15203,0.675 -0.27293,0.675 -0.11939,0 -1.1459,-0.9315 -2.2812,-2.07 l -2.0641,-2.07 h -9.363795 -9.3638 l -7.2388,7.245 z m -38.12,-1.575 v 3.24 l 0.99,0.09 0.99,0.09 v 8.91 8.91 l -7.6219,0.12224 c -4.1921,0.06723 -7.7412,0.16802 -7.887,0.22398 -0.16679,0.064 -0.24396,0.28571 -0.20806,0.59776 l 0.0571,0.49602 h 7.83 7.83 l 0.09,1.53 0.09,1.53 h 3.24 3.24 l 0.09,-2.16 0.09,-2.16 h 4.5 4.5 l 0.09,0.81 0.09,0.81 h 3.24 3.24 l 0.09,-1.08 0.09,-1.08 5.7302,-0.09 c 3.1516,-0.0495 5.7639,-0.05625 5.805,-0.01499 0.0411,0.04124 0.0747,2.1875 0.0747,4.7694 v 4.6944 l 10.394,10.396 10.395,10.396 h 19.239995 19.24 l 0.78277,-0.72152 0.78276,-0.72152 9.9474,0.0465 9.9474,0.0465 0.09,1.35 0.09,1.35 h 1.98 1.98 v -2.88 -2.88 l -0.99,-0.09 -0.99,-0.09 v -12.78 -12.78 l 1.08,-0.09 1.08,-0.09 v -3.24 -3.24 h -2.88 -2.88 v 3.24 3.24 l 1.08,0.09 1.08,0.09 0.0462,12.728 c 0.0452,12.458 0.0388,12.732 -0.30469,12.916 -0.24599,0.13165 -0.36743,0.41626 -0.4062,0.95198 l -0.0553,0.76418 -10.152,0.0465 -10.152,0.0465 -0.77946,0.71849 -0.77947,0.71849 h -18.857 -18.856995 l -9.9468,-9.9468 -9.9468,-9.9468 v -5.3911 -5.3911 l 5.22,-5.231 5.22,-5.231 v -1.639 c 0,-1.2464 0.0655,-1.6933 0.27345,-1.8659 0.23201,-0.19256 0.2661,-0.81625 0.225,-4.117 l -0.0485,-3.8901 h -1.08 -1.08 l -0.0484,3.8901 c -0.0411,3.3008 -0.007,3.9245 0.225,4.117 0.20346,0.16885 0.27344,0.60056 0.27344,1.6867 v 1.4598 l -5.6309,5.6309 -5.6309,5.6309 -5.3941,-0.04774 -5.3941,-0.04774 -0.09,-1.08 -0.09,-1.08 h -3.24 -3.24 l -0.09,1.35 -0.09,1.35 -7.02,-0.04429 c -3.861,-0.02436 -7.1221,-0.08288 -7.2468,-0.13006 -0.1788,-0.06761 -0.21692,-1.8115 -0.18,-8.2357 l 0.0468,-8.1499 1.17,-0.09 1.17,-0.09 0.0495,-3.0534 c 0.0272,-1.6794 0.009,-3.1597 -0.0411,-3.2896 -0.0706,-0.18409 -0.71693,-0.22526 -2.9295,-0.18661 l -2.8389,0.04959 v 3.24 z m 59.711995,1.03 -0.049,3.91 0.859,0.442 c 0.566,0.292 2.113,1.702 4.546,4.145 l 3.6884,3.7028 h 2.5603 c 2.8878,0 2.8912,0.0016 3.1031,1.53 0.0954,0.688 0.13326,0.72446 0.85117,0.82028 0.6149,0.08207 0.98296,0.31881 2.0272,1.3038 l 1.276,1.204 13.363,0.046 13.363,0.046 0.09,1.26 0.09,1.26 h 2.88 2.88 v -3.24 -3.24 h -2.88 -2.88 l -0.09,1.26 -0.09,1.26 -13.084,0.04617 -13.084,0.04617 -0.50213,-0.43191 c -0.45005,-0.38711 -0.47865,-0.47592 -0.27578,-0.85617 0.16011,-0.30011 0.21153,-1.2144 0.17572,-3.1243 l -0.0506,-2.7 h -1.98 -1.98 l -0.09,1.08 -0.09,1.08 -2.5998,0.05016 -2.5998,0.05015 -3.5652,-3.5652 -3.5652,-3.5652 v -3.79 c 0,-2.0845 -0.0575,-3.8475 -0.12785,-3.9179 -0.0703,-0.07032 -0.57657,-0.10407 -1.125,-0.075 l -0.99715,0.05286 -0.0485,3.9102 z m -4.451495,0.03685 v 3.9471 l 0.53445,0.14293 c 0.375,0.1 3.868995,3.475 11.699995,11.302 l 11.166,11.16 1.53,0.05 1.53,0.051 0.09,1.08 0.09,1.08 4.14,0.09 4.14,0.09 v 4.41 4.41 l -1.26,0.09 -1.26,0.09 v 3.24 3.24 h 2.88 2.88 v -3.24 -3.24 l -0.9,-0.09 -0.9,-0.09 v -4.41 -4.41 l 4.68,-0.09 4.68,-0.09 v -3.42 -3.42 h -9.54 -9.54 l -0.09,1.62 -0.09,1.62 -1.3397,0.0536 -1.3397,0.0536 -10.765,-10.765 -10.764995,-10.765 v -3.7933 c 0,-2.0863 -0.0575,-3.8509 -0.12785,-3.9212 -0.0703,-0.07032 -0.57657,-0.10407 -1.125,-0.075 l -0.99715,0.05285 v 3.947 z m -4.5484,-0.05694 c -0.0411,3.3008 -0.007,3.9245 0.225,4.117 0.236,0.197 0.273,1.267 0.273,7.998 v 7.7705 l 0.81,0.79496 c 0.4455,0.43722 0.81,0.89737 0.81,1.0225 0,0.17046 -0.64382,0.24012 -2.565,0.27752 l -2.565,0.0499 v 3.42 3.42 l 4.59,0.09 4.59,0.09 v 4.41 4.41 l -0.81,0.09 -0.81,0.09 v 3.24 3.24 h 2.88 2.879995 v -3.24 -3.24 l -1.35,-0.09 -1.349995,-0.09 v -4.41 -4.41 l 4.229995,-0.09 4.23,-0.09 v -3.42 -3.42 l -5.9946,-0.09 -5.994595,-0.09 -1.1604,-1.1953 -1.1604,-1.1953 v -7.5577 c 0,-6.4984 0.0378,-7.5891 0.27,-7.7818 0.22447,-0.1863 0.27,-0.86789 0.27,-4.042 0,-2.0999 -0.0575,-3.8755 -0.12785,-3.9458 -0.0703,-0.07032 -0.57657,-0.10407 -1.125,-0.075 l -0.997,0.053 -0.048,3.89 z m -64.392,10.87 v 3.6 h 4.5 4.5 l 0.0491,-3.4145 c 0.027,-1.878 0.009,-3.5196 -0.0406,-3.6482 -0.0709,-0.18472 -1.0244,-0.2236 -4.5491,-0.18554 l -4.4594,0.04815 v 3.6 z m -19.4400004,0 v 3.6 h 4.5000004 4.5 l 0.0491,-3.4145 c 0.027,-1.878 0.009,-3.5196 -0.0406,-3.6482 -0.0709,-0.18472 -1.0244,-0.2236 -4.5491,-0.18554 L 8.3620246,48.8692 v 3.6 z m 124.2899954,-1.08 -0.09,1.08 h -3.42 -3.42 l -0.09,-1.08 -0.09,-1.08 h -1.98 -1.98 v 2.88 2.88 h 1.98 1.98 l 0.09,-1.08 0.09,-1.08 h 3.42 3.42 l 0.09,1.08 0.09,1.08 h 3.24 3.24 l 0.05,-2.6921 c 0.0275,-1.4806 0.009,-2.7988 -0.041,-2.9292 -0.0715,-0.18641 -0.7747,-0.22657 -3.29,-0.18791 l -3.199,0.04917 -0.09,1.08 z m -62.999995,13.95 -0.09,2.43 -20.88,0.09 -20.88,0.09 v 0.54 0.54 l 21.6,0.09 21.6,0.09 v 2.16 2.16 l -1.26,0.09 -1.26,0.09 v 1.44 1.44 h 2.88 2.88 v -1.44 -1.44 l -0.9,-0.09 -0.9,-0.09 v -2.34 -2.34 l 1.89,-0.09 1.89,-0.09 0.05,-2.6921 c 0.0275,-1.4806 0.009,-2.7988 -0.041,-2.9292 -0.0715,-0.18641 -0.7747,-0.22657 -3.29,-0.18791 l -3.199,0.0492 -0.09,2.43 z m -41.85,5.85 v 0.54 h 4.4975 c 4.1956,0 4.5018,-0.0218 4.5602,-0.32551 0.16381,-0.85063 0.1453,-0.85386 -4.5983,-0.80264 l -4.4594,0.0481 v 0.54 z m 0,13.14 v 3.6 h 4.5 4.5 l 0.0491,-3.4145 c 0.027,-1.878 0.009,-3.5196 -0.0406,-3.6482 -0.0709,-0.18472 -1.0244,-0.2236 -4.5491,-0.18554 l -4.4594,0.0481 v 3.6 z m -19.4400004,0 v 3.6 h 4.5000004 4.5 l 0.0491,-3.4145 c 0.027,-1.878 0.009,-3.5196 -0.0406,-3.6482 -0.0709,-0.18472 -1.0244,-0.2236 -4.5491,-0.18554 l -4.4594004,0.0481 v 3.6 z"
     inkscape:connector-curvature="0"
     style="fill:#050505" />
</svg>
